<svg xmlns="http://www.w3.org/2000/svg" width="537.23" height="365" viewBox="0 0 537.23 365"><defs><style>.a,.b,.c,.d,.f,.g{fill:none;}.a,.b,.d{stroke:#969696;}.a,.c,.d,.e,.f,.g{stroke-miterlimit:10;}.a,.b,.c,.g{stroke-width:2px;}.b,.e,.f,.g{stroke-linecap:round;}.b{stroke-linejoin:round;stroke-dasharray:4 6;}.c{stroke:#d7ff00;}.d,.e,.f{stroke-width:4px;}.e{fill:#1e1e1e;}.e,.f{stroke:#fff;}.g{stroke:orange;}</style></defs><title>slider-bg-1</title><path class="a" d="M323.35,225.56H296.29a6.08,6.08,0,0,1-6.06-6.05V203.87a6.07,6.07,0,0,1,6.06-6.05"/><path class="a" d="M370.44,170a6.07,6.07,0,0,1,6.05,6.05v1.58"/><path class="a" d="M296.29,197.72a6.07,6.07,0,0,1-6.06-6.05V176a6.08,6.08,0,0,1,6.06-6.05"/><line class="a" x1="347.74" y1="156.15" x2="353.79" y2="156.15"/><path class="a" d="M296.29,170a6.08,6.08,0,0,1-6.06-6.06V148.33a6.08,6.08,0,0,1,6.06-6.05h74.15a6.07,6.07,0,0,1,6.05,6.05V164a6.07,6.07,0,0,1-6.05,6.06"/><line class="a" x1="359.84" y1="156.15" x2="365.9" y2="156.15"/><line class="a" x1="296.29" y1="197.82" x2="323.52" y2="197.82"/><line class="a" x1="302.2" y1="169.98" x2="294.77" y2="169.98"/><line class="a" x1="370.44" y1="169.98" x2="315.96" y2="169.98"/><path class="a" d="M323.19,244.33V179.2a1.82,1.82,0,0,1,1.81-1.81h98.78a1.81,1.81,0,0,1,1.81,1.81v75.93H341.18"/><line class="a" x1="323.19" y1="188.16" x2="332.27" y2="188.16"/><path class="b" d="M332.47,244.63V188.28a1.82,1.82,0,0,1,1.81-1.81h98.79a1.81,1.81,0,0,1,1.8,1.81v75.93H344.75"/><line class="b" x1="333.36" y1="197.24" x2="433.99" y2="197.24"/><circle class="c" cx="303.1" cy="155.65" r="4.92"/><circle class="a" cx="303.1" cy="183.35" r="4.92"/><circle class="a" cx="303.1" cy="211.18" r="4.92"/><circle class="d" cx="323.37" cy="264.07" r="19.93"/><line class="e" x1="323.37" y1="255.74" x2="323.37" y2="272.4"/><line class="f" x1="315.04" y1="264.07" x2="331.7" y2="264.07"/><circle class="g" cx="381.73" cy="230.51" r="21.4"/><line class="g" x1="381.61" y1="210.41" x2="381.61" y2="250.93"/><line class="g" x1="400.91" y1="221.99" x2="361.98" y2="221.99"/><line class="g" x1="400.91" y1="238.95" x2="361.98" y2="238.95"/><path class="g" d="M379.18,209.63h0a29.42,29.42,0,0,0,0,40.64l1.22,1.28"/><path class="g" d="M384.19,209.63h0a29.42,29.42,0,0,1,0,40.64l-1.22,1.28"/></svg>